<?xml version="1.0" encoding="UTF-8"?>
<svg width="106px" height="17px" viewBox="0 0 106 17" version="1.1" xmlns="http://www.w3.org/2000/svg" xmlns:xlink="http://www.w3.org/1999/xlink">
    <title>Group 11</title>
    <g id="Welcome" stroke="none" stroke-width="1" fill="none" fill-rule="evenodd" opacity="0.900000036">
        <g id="Summer-Sale-Desktop" transform="translate(-240.000000, -6879.000000)" fill="#FF7400">
            <g id="Influencer-Reviews" transform="translate(239.000000, 6694.000000)">
                <g id="Group-8" transform="translate(0.000000, 81.000000)">
                    <g id="Group-45" transform="translate(0.000000, 104.000000)">
                        <g id="Group-11" transform="translate(1.000000, 0.000000)">
                            <polygon id="Star" points="8.5 12.75 3.50382536 15.3766445 4.45800981 9.81332223 0.416019611 5.87335555 6.00191268 5.06167777 8.5 0 10.9980873 5.06167777 16.5839804 5.87335555 12.5419902 9.81332223 13.4961746 15.3766445"></polygon>
                            <polygon id="Star-Copy" points="30.5 12.75 25.5038254 15.3766445 26.4580098 9.81332223 22.4160196 5.87335555 28.0019127 5.06167777 30.5 0 32.9980873 5.06167777 38.5839804 5.87335555 34.5419902 9.81332223 35.4961746 15.3766445"></polygon>
                            <polygon id="Star-Copy-2" points="52.5 12.75 47.5038254 15.3766445 48.4580098 9.81332223 44.4160196 5.87335555 50.0019127 5.06167777 52.5 0 54.9980873 5.06167777 60.5839804 5.87335555 56.5419902 9.81332223 57.4961746 15.3766445"></polygon>
                            <polygon id="Star-Copy-3" points="75.5 12.75 70.5038254 15.3766445 71.4580098 9.81332223 67.4160196 5.87335555 73.0019127 5.06167777 75.5 0 77.9980873 5.06167777 83.5839804 5.87335555 79.5419902 9.81332223 80.4961746 15.3766445"></polygon>
                            <polygon id="Star-Copy-4" points="97.5 12.75 92.5038254 15.3766445 93.4580098 9.81332223 89.4160196 5.87335555 95.0019127 5.06167777 97.5 0 99.9980873 5.06167777 105.58398 5.87335555 101.54199 9.81332223 102.496175 15.3766445"></polygon>
                        </g>
                    </g>
                </g>
            </g>
        </g>
    </g>
</svg>